<svg width="42" height="66" viewBox="0 0 42 66" fill="none" xmlns="http://www.w3.org/2000/svg">
<path fill-rule="evenodd" clip-rule="evenodd" d="M21.0026 0.837891C32.2784 0.837891 41.4193 10.4371 41.4193 22.2784C41.4193 25.8586 40.586 29.2321 39.1066 32.2005L21.0026 65.1593L3.31801 32.9999C1.5776 29.8438 0.585938 26.1841 0.585938 22.2784C0.585938 10.4371 9.72679 0.837891 21.0026 0.837891ZM21.0026 6.96374C12.9485 6.96374 6.41927 13.8203 6.41927 22.2784C6.41927 24.7105 6.95355 27.0441 7.96461 29.1508L8.45459 30.0907L21.0026 52.9076L33.6392 29.93C34.9097 27.626 35.5859 25.0145 35.5859 22.2784C35.5859 13.8203 29.0568 6.96374 21.0026 6.96374ZM21.0026 13.0896C25.8351 13.0896 29.7526 17.2035 29.7526 22.2784C29.7526 27.3532 25.8351 31.4671 21.0026 31.4671C16.1701 31.4671 12.2526 27.3532 12.2526 22.2784C12.2526 17.2035 16.1701 13.0896 21.0026 13.0896ZM21.0026 19.2154C19.3918 19.2154 18.0859 20.5868 18.0859 22.2784C18.0859 23.97 19.3918 25.3413 21.0026 25.3413C22.6134 25.3413 23.9193 23.97 23.9193 22.2784C23.9193 20.5868 22.6134 19.2154 21.0026 19.2154Z" fill="#C0B7E8"/>
</svg>
