<svg width="51" height="54" viewBox="0 0 51 54" fill="none" xmlns="http://www.w3.org/2000/svg">
<path d="M31.6457 12.8432C33.4579 13.2145 35.2568 14.0538 36.5623 15.4249C37.8679 16.7959 38.6671 18.685 39.0207 20.5881M32.8748 3.80762C36.6399 4.24685 40.0279 6.15964 42.7082 8.97083C45.3885 11.782 47.2019 15.344 47.6249 19.2973M47.6235 38.5991V45.5947C47.6339 48.2688 45.3442 50.5019 42.7732 50.2584C20.5833 50.2766 3.375 32.0375 3.39237 8.89128C3.16082 6.2058 5.27671 3.81035 7.81993 3.80784H14.4947C15.5744 3.79671 16.6212 4.19745 17.4399 4.93537C19.7675 7.03332 21.2646 14.1541 20.6886 16.9849C20.2389 19.1949 18.1174 20.7411 16.6751 22.2528C19.8423 28.0907 24.4543 32.9244 30.0245 36.2439C31.4668 34.7323 32.9421 32.5088 35.0508 32.0375C37.7559 31.4328 44.5803 33.0073 46.5701 35.4686C47.2757 36.3414 47.6506 37.4555 47.6235 38.5991Z" stroke="#C0B7E8" stroke-width="6" stroke-linecap="round" stroke-linejoin="round"/>
</svg>
