<svg width="201" height="38" viewBox="0 0 201 38" fill="none" xmlns="http://www.w3.org/2000/svg">
<path d="M198.833 19L199.894 20.0607C200.175 19.7794 200.333 19.3979 200.333 19C200.333 18.6022 200.175 18.2207 199.894 17.9394L198.833 19ZM157.167 17.5C156.338 17.5 155.667 18.1716 155.667 19C155.667 19.8285 156.338 20.5 157.167 20.5L157.167 17.5ZM181.106 34.606C180.52 35.1918 180.52 36.1416 181.106 36.7274C181.692 37.3132 182.642 37.3132 183.227 36.7274L181.106 34.606ZM183.227 1.27271C182.642 0.686927 181.692 0.686927 181.106 1.27271C180.52 1.8585 180.52 2.80825 181.106 3.39403L183.227 1.27271ZM198.833 17.5L157.167 17.5L157.167 20.5L198.833 20.5L198.833 17.5ZM183.227 36.7274L199.894 20.0607L197.773 17.9394L181.106 34.606L183.227 36.7274ZM199.894 17.9394L183.227 1.27271L181.106 3.39403L197.773 20.0607L199.894 17.9394ZM157.5 17.5H0V20.5H157.5V17.5Z" fill="#C0B7E8"/>
</svg>
