<svg width="931" height="985" viewBox="0 0 931 985" fill="none" xmlns="http://www.w3.org/2000/svg">
<mask id="path-1-inside-1_7060_15" fill="white">
<path d="M931 492.5C931 361.881 881.956 236.612 794.658 144.25C707.36 51.8883 588.958 9.86147e-06 465.5 0C342.042 -9.86147e-06 223.64 51.8882 136.342 144.25C49.0436 236.612 1.86417e-05 361.881 0 492.5L465.5 492.5H931Z"/>
</mask>
<path d="M931 492.5C931 361.881 881.956 236.612 794.658 144.25C707.36 51.8883 588.958 9.86147e-06 465.5 0C342.042 -9.86147e-06 223.64 51.8882 136.342 144.25C49.0436 236.612 1.86417e-05 361.881 0 492.5L465.5 492.5H931Z" fill="url(#paint0_linear_7060_15)" stroke="url(#paint1_linear_7060_15)" stroke-width="2" mask="url(#path-1-inside-1_7060_15)"/>
<mask id="path-2-inside-2_7060_15" fill="white">
<path d="M880 482.417C880 365.732 836.382 253.827 758.742 171.318C681.102 88.8098 575.8 42.457 466 42.457C356.2 42.457 250.898 88.8098 173.258 171.318C95.6178 253.827 52 365.732 52 482.417L466 482.417H880Z"/>
</mask>
<path d="M880 482.417C880 365.732 836.382 253.827 758.742 171.318C681.102 88.8098 575.8 42.457 466 42.457C356.2 42.457 250.898 88.8098 173.258 171.318C95.6178 253.827 52 365.732 52 482.417L466 482.417H880Z" fill="url(#paint2_linear_7060_15)" stroke="url(#paint3_linear_7060_15)" stroke-width="4" mask="url(#path-2-inside-2_7060_15)"/>
<mask id="path-3-inside-3_7060_15" fill="white">
<path d="M839 480.294C839 375.433 799.807 274.866 730.044 200.718C660.28 126.57 565.661 84.9141 467 84.9141C368.339 84.9141 273.72 126.57 203.956 200.718C134.193 274.866 95 375.433 95 480.294L467 480.294H839Z"/>
</mask>
<path d="M839 480.294C839 375.433 799.807 274.866 730.044 200.718C660.28 126.57 565.661 84.9141 467 84.9141C368.339 84.9141 273.72 126.57 203.956 200.718C134.193 274.866 95 375.433 95 480.294L467 480.294H839Z" fill="url(#paint4_linear_7060_15)" stroke="url(#paint5_linear_7060_15)" stroke-width="2" mask="url(#path-3-inside-3_7060_15)"/>
<defs>
<linearGradient id="paint0_linear_7060_15" x1="465.5" y1="-2.85355e-06" x2="455.429" y2="191.442" gradientUnits="userSpaceOnUse">
<stop stop-color="#1467B5"/>
<stop offset="0.577165" stop-color="#FF98AF"/>
<stop offset="1" stop-color="#3A3A3A" stop-opacity="0"/>
</linearGradient>
<linearGradient id="paint1_linear_7060_15" x1="465.5" y1="0" x2="466.06" y2="510.486" gradientUnits="userSpaceOnUse">
<stop stop-color="white" stop-opacity="0.13"/>
<stop offset="1" stop-color="#212139" stop-opacity="0"/>
</linearGradient>
<linearGradient id="paint2_linear_7060_15" x1="466" y1="42.457" x2="466" y2="213.346" gradientUnits="userSpaceOnUse">
<stop stop-color="#02041A"/>
<stop offset="1" stop-color="#16162E" stop-opacity="0"/>
</linearGradient>
<linearGradient id="paint3_linear_7060_15" x1="466" y1="42.457" x2="466.502" y2="498.484" gradientUnits="userSpaceOnUse">
<stop stop-color="#B9B9B9" stop-opacity="0.26"/>
<stop offset="1" stop-color="#212139" stop-opacity="0"/>
</linearGradient>
<linearGradient id="paint4_linear_7060_15" x1="467" y1="84.9141" x2="467" y2="238.487" gradientUnits="userSpaceOnUse">
<stop stop-color="#02041A"/>
<stop offset="1" stop-color="#16162E" stop-opacity="0"/>
</linearGradient>
<linearGradient id="paint5_linear_7060_15" x1="467" y1="84.9141" x2="467.451" y2="494.733" gradientUnits="userSpaceOnUse">
<stop stop-color="#212139"/>
<stop offset="1" stop-color="#212139" stop-opacity="0"/>
</linearGradient>
</defs>
</svg>
