<svg width="118" height="48" viewBox="0 0 118 48" fill="none" xmlns="http://www.w3.org/2000/svg">
<g clip-path="url(#clip0_7009_729)" filter="url(#filter0_d_7009_729)">
<path fill-rule="evenodd" clip-rule="evenodd" d="M22 6.61106C22 4.15647 20.0102 2.16663 17.5556 2.16663H16C12.6863 2.16663 10 4.85292 10 8.16663V11.0555V13.9444C10 17.2581 12.6863 19.9444 16 19.9444H17.5556C20.0102 19.9444 22 21.9343 22 24.3889C22 26.8435 23.9898 28.8333 26.4444 28.8333H28C31.3137 28.8333 34 26.147 34 22.8333V19.9444V17.0555C34 13.7418 31.3137 11.0555 28 11.0555H26.4444C23.9898 11.0555 22 9.06565 22 6.61106Z" fill="url(#paint0_linear_7009_729)"/>
<path d="M47.5234 5.9375H53.8867C55.1914 5.9375 56.3125 6.13281 57.25 6.52344C58.1953 6.91406 58.9219 7.49219 59.4297 8.25781C59.9375 9.02344 60.1914 9.96484 60.1914 11.082C60.1914 11.9961 60.0352 12.7812 59.7227 13.4375C59.418 14.0859 58.9844 14.6289 58.4219 15.0664C57.8672 15.4961 57.2148 15.8398 56.4648 16.0977L55.3516 16.6836H49.8203L49.7969 13.9414H53.9102C54.5273 13.9414 55.0391 13.832 55.4453 13.6133C55.8516 13.3945 56.1562 13.0898 56.3594 12.6992C56.5703 12.3086 56.6758 11.8555 56.6758 11.3398C56.6758 10.793 56.5742 10.3203 56.3711 9.92188C56.168 9.52344 55.8594 9.21875 55.4453 9.00781C55.0312 8.79688 54.5117 8.69141 53.8867 8.69141H51.0391V23H47.5234V5.9375ZM57.0625 23L53.1719 15.3945L56.8867 15.3711L60.8242 22.8359V23H57.0625ZM68.2534 23.2344C67.2691 23.2344 66.3862 23.0781 65.605 22.7656C64.8237 22.4453 64.1597 22.0039 63.6128 21.4414C63.0737 20.8789 62.6597 20.2266 62.3706 19.4844C62.0816 18.7344 61.937 17.9375 61.937 17.0938V16.625C61.937 15.6641 62.0737 14.7852 62.3472 13.9883C62.6206 13.1914 63.0112 12.5 63.5191 11.9141C64.0347 11.3281 64.6597 10.8789 65.3941 10.5664C66.1284 10.2461 66.9566 10.0859 67.8784 10.0859C68.7769 10.0859 69.5737 10.2344 70.2691 10.5312C70.9644 10.8281 71.5464 11.25 72.0152 11.7969C72.4917 12.3438 72.8511 13 73.0933 13.7656C73.3355 14.5234 73.4566 15.3672 73.4566 16.2969V17.7031H63.3784V15.4531H70.1402V15.1953C70.1402 14.7266 70.0542 14.3086 69.8823 13.9414C69.7183 13.5664 69.4683 13.2695 69.1323 13.0508C68.7964 12.832 68.3667 12.7227 67.8433 12.7227C67.398 12.7227 67.0152 12.8203 66.6948 13.0156C66.3745 13.2109 66.1128 13.4844 65.9097 13.8359C65.7144 14.1875 65.5659 14.6016 65.4644 15.0781C65.3706 15.5469 65.3237 16.0625 65.3237 16.625V17.0938C65.3237 17.6016 65.3941 18.0703 65.5347 18.5C65.6831 18.9297 65.8902 19.3008 66.1558 19.6133C66.4292 19.9258 66.7573 20.168 67.1402 20.3398C67.5308 20.5117 67.9722 20.5977 68.4644 20.5977C69.0737 20.5977 69.6402 20.4805 70.1636 20.2461C70.6948 20.0039 71.1519 19.6406 71.5347 19.1562L73.1753 20.9375C72.9097 21.3203 72.5464 21.6875 72.0855 22.0391C71.6323 22.3906 71.0855 22.6797 70.4448 22.9062C69.8042 23.125 69.0737 23.2344 68.2534 23.2344ZM81.9522 20.1406V14.4922C81.9522 14.0859 81.8858 13.7383 81.753 13.4492C81.6202 13.1523 81.4131 12.9219 81.1319 12.7578C80.8584 12.5938 80.503 12.5117 80.0655 12.5117C79.6905 12.5117 79.3662 12.5781 79.0928 12.7109C78.8194 12.8359 78.6084 13.0195 78.46 13.2617C78.3116 13.4961 78.2373 13.7734 78.2373 14.0938H74.8623C74.8623 13.5547 74.9873 13.043 75.2373 12.5586C75.4873 12.0742 75.8506 11.6484 76.3272 11.2812C76.8037 10.9062 77.3702 10.6133 78.0264 10.4023C78.6905 10.1914 79.4327 10.0859 80.253 10.0859C81.2373 10.0859 82.1123 10.25 82.878 10.5781C83.6436 10.9062 84.2452 11.3984 84.6827 12.0547C85.128 12.7109 85.3506 13.5312 85.3506 14.5156V19.9414C85.3506 20.6367 85.3936 21.207 85.4795 21.6523C85.5655 22.0898 85.6905 22.4727 85.8545 22.8008V23H82.4444C82.2803 22.6562 82.1553 22.2266 82.0694 21.7109C81.9912 21.1875 81.9522 20.6641 81.9522 20.1406ZM82.3975 15.2773L82.4209 17.1875H80.5342C80.0889 17.1875 79.7022 17.2383 79.3741 17.3398C79.0459 17.4414 78.7764 17.5859 78.5655 17.7734C78.3545 17.9531 78.1983 18.1641 78.0967 18.4062C78.003 18.6484 77.9561 18.9141 77.9561 19.2031C77.9561 19.4922 78.0225 19.7539 78.1553 19.9883C78.2881 20.2148 78.4795 20.3945 78.7295 20.5273C78.9795 20.6523 79.2725 20.7148 79.6084 20.7148C80.1162 20.7148 80.5577 20.6133 80.9327 20.4102C81.3077 20.207 81.5967 19.957 81.7998 19.6602C82.0108 19.3633 82.1202 19.082 82.128 18.8164L83.0186 20.2461C82.8936 20.5664 82.7217 20.8984 82.503 21.2422C82.292 21.5859 82.0225 21.9102 81.6944 22.2148C81.3662 22.5117 80.9717 22.7578 80.5108 22.9531C80.0498 23.1406 79.503 23.2344 78.8702 23.2344C78.0655 23.2344 77.335 23.0742 76.6787 22.7539C76.0303 22.4258 75.5147 21.9766 75.1319 21.4062C74.7569 20.8281 74.5694 20.1719 74.5694 19.4375C74.5694 18.7734 74.6944 18.1836 74.9444 17.668C75.1944 17.1523 75.5616 16.7188 76.0459 16.3672C76.5381 16.0078 77.1514 15.7383 77.8858 15.5586C78.6202 15.3711 79.4717 15.2773 80.4405 15.2773H82.3975ZM91.2447 5V23H87.858V5H91.2447ZM97.3262 10.3203V23H93.9395V10.3203H97.3262ZM93.7286 7.01562C93.7286 6.52344 93.9005 6.11719 94.2442 5.79688C94.588 5.47656 95.0489 5.31641 95.627 5.31641C96.1973 5.31641 96.6544 5.47656 96.9981 5.79688C97.3497 6.11719 97.5255 6.52344 97.5255 7.01562C97.5255 7.50781 97.3497 7.91406 96.9981 8.23438C96.6544 8.55469 96.1973 8.71484 95.627 8.71484C95.0489 8.71484 94.588 8.55469 94.2442 8.23438C93.9005 7.91406 93.7286 7.50781 93.7286 7.01562ZM102.564 10.3203L104.662 14.1758L106.818 10.3203H110.416L106.83 16.5195L110.58 23H106.97L104.685 18.9219L102.4 23H98.7906L102.541 16.5195L98.9547 10.3203H102.564Z" fill="#CAD1E9"/>
</g>
<defs>
<filter id="filter0_d_7009_729" x="0" y="0" width="124" height="48" filterUnits="userSpaceOnUse" color-interpolation-filters="sRGB">
<feFlood flood-opacity="0" result="BackgroundImageFix"/>
<feColorMatrix in="SourceAlpha" type="matrix" values="0 0 0 0 0 0 0 0 0 0 0 0 0 0 0 0 0 0 127 0" result="hardAlpha"/>
<feOffset dy="10"/>
<feGaussianBlur stdDeviation="3"/>
<feComposite in2="hardAlpha" operator="out"/>
<feColorMatrix type="matrix" values="0 0 0 0 0 0 0 0 0 0 0 0 0 0 0 0 0 0 0.25 0"/>
<feBlend mode="normal" in2="BackgroundImageFix" result="effect1_dropShadow_7009_729"/>
<feBlend mode="normal" in="SourceGraphic" in2="effect1_dropShadow_7009_729" result="shape"/>
</filter>
<linearGradient id="paint0_linear_7009_729" x1="22" y1="2.16663" x2="22" y2="28.8333" gradientUnits="userSpaceOnUse">
<stop stop-color="#B67EFD"/>
<stop offset="0.97" stop-color="#FFAC8E"/>
<stop offset="1" stop-color="#CAD1E9" stop-opacity="0"/>
</linearGradient>
<clipPath id="clip0_7009_729">
<rect width="112" height="32" fill="white" transform="translate(6)"/>
</clipPath>
</defs>
</svg>
